<?xml version="1.0" encoding="UTF-8"?><svg xmlns="http://www.w3.org/2000/svg" xmlns:xlink="http://www.w3.org/1999/xlink" fill-opacity="1" color-rendering="auto" color-interpolation="auto" text-rendering="auto" stroke="black" stroke-linecap="square" width="301" stroke-miterlimit="10" shape-rendering="auto" stroke-opacity="1" fill="black" stroke-dasharray="none" font-weight="normal" stroke-width="1" height="299" font-family="'Dialog'" font-style="normal" stroke-linejoin="miter" font-size="12px" stroke-dashoffset="0" image-rendering="auto">
  <!--Generated by ySVG 2.5-->
  <defs id="genericDefs"/>
  <g>
    <defs id="defs1">
      <clipPath clipPathUnits="userSpaceOnUse" id="clipPath1">
        <path d="M0 0 L301 0 L301 299 L0 299 L0 0 Z"/>
      </clipPath>
      <clipPath clipPathUnits="userSpaceOnUse" id="clipPath2">
        <path d="M400 47 L701 47 L701 346 L400 346 L400 47 Z"/>
      </clipPath>
    </defs>
    <g fill="white" text-rendering="geometricPrecision" shape-rendering="geometricPrecision" transform="translate(-400,-47)" stroke="white">
      <rect x="400" width="301" height="299" y="47" clip-path="url(#clipPath2)" stroke="none"/>
    </g>
    <g text-rendering="geometricPrecision" stroke-miterlimit="1.45" shape-rendering="geometricPrecision" font-family="sans-serif" transform="matrix(1,0,0,1,-400,-47)" stroke-linecap="butt">
      <text x="511.8418" xml:space="preserve" y="79.3255" clip-path="url(#clipPath2)" stroke="none">Kafka Cluster</text>
      <rect fill="none" x="440.7456" width="222.3488" height="132.2187" y="62.1868" clip-path="url(#clipPath2)"/>
      <text x="476.4532" xml:space="preserve" y="133.4344" clip-path="url(#clipPath2)" stroke="none">Server 1</text>
      <rect fill="none" x="457.8536" width="88" height="66" y="116.2958" clip-path="url(#clipPath2)"/>
      <text x="575.6085" xml:space="preserve" y="133.4344" clip-path="url(#clipPath2)" stroke="none">Server 2</text>
      <rect fill="none" x="557.0089" width="88" height="66" y="116.2958" clip-path="url(#clipPath2)"/>
      <text x="529.5963" xml:space="preserve" y="104.1254" clip-path="url(#clipPath2)" stroke="none">Topic 1</text>
      <rect fill="none" x="447.6296" width="207.6032" height="101.2256" y="86.9867" clip-path="url(#clipPath2)"/>
      <text x="554.9874" xml:space="preserve" y="321.4574" clip-path="url(#clipPath2)" stroke="none">Consumer Group 2</text>
      <rect fill="none" x="538.1212" width="146.9824" height="66" y="264.2875" clip-path="url(#clipPath2)"/>
      <text x="418.4159" xml:space="preserve" y="321.4574" clip-path="url(#clipPath2)" stroke="none">Consumer Group 1</text>
      <rect fill="none" x="415.727" width="118.6278" height="66" y="264.2875" clip-path="url(#clipPath2)"/>
      <text x="479.418" xml:space="preserve" y="164.2823" clip-path="url(#clipPath2)" stroke="none">P0</text>
      <rect fill="none" x="471.8536" width="30" height="30" y="145.128" clip-path="url(#clipPath2)"/>
      <text x="509.418" xml:space="preserve" y="164.2823" clip-path="url(#clipPath2)" stroke="none">P1</text>
      <rect fill="none" x="501.8536" width="30" height="30" y="145.128" clip-path="url(#clipPath2)"/>
      <text x="578.418" xml:space="preserve" y="164.2823" clip-path="url(#clipPath2)" stroke="none">P2</text>
      <rect fill="none" x="570.8536" width="30" height="30" y="145.128" clip-path="url(#clipPath2)"/>
      <text x="608.418" xml:space="preserve" y="164.2823" clip-path="url(#clipPath2)" stroke="none">P3</text>
      <rect fill="none" x="600.8536" width="30" height="30" y="145.128" clip-path="url(#clipPath2)"/>
      <text x="437.5291" xml:space="preserve" y="292.5822" clip-path="url(#clipPath2)" stroke="none">C0</text>
      <rect fill="none" x="430.536" width="30" height="30" y="273.4279" clip-path="url(#clipPath2)"/>
      <text x="491.1221" xml:space="preserve" y="292.5822" clip-path="url(#clipPath2)" stroke="none">C1</text>
      <rect fill="none" x="484.1289" width="30" height="30" y="273.4279" clip-path="url(#clipPath2)"/>
      <text x="549.3268" xml:space="preserve" y="292.5822" clip-path="url(#clipPath2)" stroke="none">C0</text>
      <rect fill="none" x="542.3337" width="30" height="30" y="273.4279" clip-path="url(#clipPath2)"/>
      <text x="585.2712" xml:space="preserve" y="292.5822" clip-path="url(#clipPath2)" stroke="none">C1</text>
      <rect fill="none" x="578.2781" width="30" height="30" y="273.4279" clip-path="url(#clipPath2)"/>
      <text x="622.002" xml:space="preserve" y="292.5822" clip-path="url(#clipPath2)" stroke="none">C2</text>
      <rect fill="none" x="615.0089" width="30" height="30" y="273.4279" clip-path="url(#clipPath2)"/>
      <text x="658.7328" xml:space="preserve" y="292.5822" clip-path="url(#clipPath2)" stroke="none">C3</text>
      <rect fill="none" x="651.7397" width="30" height="30" y="273.4279" clip-path="url(#clipPath2)"/>
      <path fill="none" d="M445.5461 273.4039 L486.8536 175.128" clip-path="url(#clipPath2)"/>
      <path fill="none" d="M445.5534 273.4039 L516.8536 175.128" clip-path="url(#clipPath2)"/>
      <path fill="none" d="M499.1501 273.4039 L585.8536 175.128" clip-path="url(#clipPath2)"/>
      <path fill="none" d="M499.1574 273.4039 L615.8536 175.128" clip-path="url(#clipPath2)"/>
      <path fill="none" d="M557.3165 273.4039 L486.8536 175.128" clip-path="url(#clipPath2)"/>
      <path fill="none" d="M593.2594 273.4039 L516.8536 175.128" clip-path="url(#clipPath2)"/>
      <path fill="none" d="M629.9981 273.4039 L585.8536 175.128" clip-path="url(#clipPath2)"/>
      <path fill="none" d="M666.7272 273.4039 L615.8536 175.128" clip-path="url(#clipPath2)"/>
    </g>
  </g>
</svg>
