<?xml version="1.0" encoding="UTF-8"?><svg xmlns="http://www.w3.org/2000/svg" xmlns:xlink="http://www.w3.org/1999/xlink" fill-opacity="1" color-rendering="auto" color-interpolation="auto" text-rendering="auto" stroke="black" stroke-linecap="square" width="464" stroke-miterlimit="10" shape-rendering="auto" stroke-opacity="1" fill="black" stroke-dasharray="none" font-weight="normal" stroke-width="1" height="272" font-family="'Dialog'" font-style="normal" stroke-linejoin="miter" font-size="12px" stroke-dashoffset="0" image-rendering="auto">
  <!--Generated by ySVG 2.5-->
  <defs id="genericDefs"/>
  <g>
    <defs id="defs1">
      <clipPath clipPathUnits="userSpaceOnUse" id="clipPath1">
        <path d="M0 0 L464 0 L464 272 L0 272 L0 0 Z"/>
      </clipPath>
      <clipPath clipPathUnits="userSpaceOnUse" id="clipPath2">
        <path d="M389 237 L853 237 L853 509 L389 509 L389 237 Z"/>
      </clipPath>
    </defs>
    <g fill="white" text-rendering="geometricPrecision" shape-rendering="geometricPrecision" transform="translate(-389,-237)" stroke="white">
      <rect x="389" width="464" height="272" y="237" clip-path="url(#clipPath2)" stroke="none"/>
    </g>
    <g text-rendering="geometricPrecision" stroke-miterlimit="1.45" shape-rendering="geometricPrecision" font-family="sans-serif" transform="matrix(1,0,0,1,-389,-237)" stroke-linecap="butt">
      <text x="509.1826" xml:space="preserve" y="312.1543" clip-path="url(#clipPath2)" stroke="none">0</text>
      <rect fill="none" x="498" width="30" height="30" y="293" clip-path="url(#clipPath2)"/>
      <text x="539.1826" xml:space="preserve" y="312.1543" clip-path="url(#clipPath2)" stroke="none">1</text>
      <rect fill="none" x="528" width="30" height="30" y="293" clip-path="url(#clipPath2)"/>
      <text x="569.1826" xml:space="preserve" y="312.1543" clip-path="url(#clipPath2)" stroke="none">2</text>
      <rect fill="none" x="558" width="30" height="30" y="293" clip-path="url(#clipPath2)"/>
      <text x="599.1826" xml:space="preserve" y="312.1543" clip-path="url(#clipPath2)" stroke="none">3</text>
      <rect fill="none" x="588" width="30" height="30" y="293" clip-path="url(#clipPath2)"/>
      <text x="629.1826" xml:space="preserve" y="312.1543" clip-path="url(#clipPath2)" stroke="none">4</text>
      <rect fill="none" x="618" width="30" height="30" y="293" clip-path="url(#clipPath2)"/>
      <text x="659.1826" xml:space="preserve" y="312.1543" clip-path="url(#clipPath2)" stroke="none">5</text>
      <rect fill="none" x="648" width="30" height="30" y="293" clip-path="url(#clipPath2)"/>
      <text x="689.1826" xml:space="preserve" y="312.1543" clip-path="url(#clipPath2)" stroke="none">6</text>
      <rect fill="none" x="678" width="30" height="30" y="293" clip-path="url(#clipPath2)"/>
      <text x="719.1826" xml:space="preserve" y="312.1543" clip-path="url(#clipPath2)" stroke="none">7</text>
      <rect fill="none" x="708" width="30" height="30" y="293" clip-path="url(#clipPath2)"/>
      <text x="749.1826" xml:space="preserve" y="312.1543" clip-path="url(#clipPath2)" stroke="none">8</text>
      <rect fill="none" x="738" width="30" height="30" y="293" clip-path="url(#clipPath2)"/>
      <text x="779.1826" xml:space="preserve" y="312.1543" clip-path="url(#clipPath2)" stroke="none">9</text>
      <rect x="768" y="293" clip-path="url(#clipPath2)" fill="none" width="30" stroke-dasharray="6,2" height="30"/>
      <text x="509.1826" xml:space="preserve" y="372.1543" clip-path="url(#clipPath2)" stroke="none">0</text>
      <rect fill="none" x="498" width="30" height="30" y="353" clip-path="url(#clipPath2)"/>
      <text x="539.1826" xml:space="preserve" y="372.1543" clip-path="url(#clipPath2)" stroke="none">1</text>
      <rect fill="none" x="528" width="30" height="30" y="353" clip-path="url(#clipPath2)"/>
      <text x="569.1826" xml:space="preserve" y="372.1543" clip-path="url(#clipPath2)" stroke="none">2</text>
      <rect fill="none" x="558" width="30" height="30" y="353" clip-path="url(#clipPath2)"/>
      <text x="599.1826" xml:space="preserve" y="372.1543" clip-path="url(#clipPath2)" stroke="none">3</text>
      <rect fill="none" x="588" width="30" height="30" y="353" clip-path="url(#clipPath2)"/>
      <text x="629.1826" xml:space="preserve" y="372.1543" clip-path="url(#clipPath2)" stroke="none">4</text>
      <rect fill="none" x="618" width="30" height="30" y="353" clip-path="url(#clipPath2)"/>
      <text x="659.1826" xml:space="preserve" y="372.1543" clip-path="url(#clipPath2)" stroke="none">5</text>
      <rect fill="none" x="648" width="30" height="30" y="353" clip-path="url(#clipPath2)"/>
      <text x="509.1826" xml:space="preserve" y="432.1543" clip-path="url(#clipPath2)" stroke="none">0</text>
      <rect fill="none" x="498" width="30" height="30" y="413" clip-path="url(#clipPath2)"/>
      <text x="539.1826" xml:space="preserve" y="432.1543" clip-path="url(#clipPath2)" stroke="none">1</text>
      <rect fill="none" x="528" width="30" height="30" y="413" clip-path="url(#clipPath2)"/>
      <text x="569.1826" xml:space="preserve" y="432.1543" clip-path="url(#clipPath2)" stroke="none">2</text>
      <rect fill="none" x="558" width="30" height="30" y="413" clip-path="url(#clipPath2)"/>
      <text x="599.1826" xml:space="preserve" y="432.1543" clip-path="url(#clipPath2)" stroke="none">3</text>
      <rect fill="none" x="588" width="30" height="30" y="413" clip-path="url(#clipPath2)"/>
      <text x="629.1826" xml:space="preserve" y="432.1543" clip-path="url(#clipPath2)" stroke="none">4</text>
      <rect fill="none" x="618" width="30" height="30" y="413" clip-path="url(#clipPath2)"/>
      <text x="659.1826" xml:space="preserve" y="432.1543" clip-path="url(#clipPath2)" stroke="none">5</text>
      <rect fill="none" x="648" width="30" height="30" y="413" clip-path="url(#clipPath2)"/>
      <text x="689.1826" xml:space="preserve" y="432.1543" clip-path="url(#clipPath2)" stroke="none">6</text>
      <rect fill="none" x="678" width="30" height="30" y="413" clip-path="url(#clipPath2)"/>
      <text x="719.1826" xml:space="preserve" y="432.1543" clip-path="url(#clipPath2)" stroke="none">7</text>
      <rect fill="none" x="708" width="30" height="30" y="413" clip-path="url(#clipPath2)"/>
      <text x="749.1826" xml:space="preserve" y="432.1543" clip-path="url(#clipPath2)" stroke="none">8</text>
      <rect x="738" y="413" clip-path="url(#clipPath2)" fill="none" width="30" stroke-dasharray="6,2" height="30"/>
      <text x="689.1826" xml:space="preserve" y="372.1543" clip-path="url(#clipPath2)" stroke="none">6</text>
      <rect x="678" y="353" clip-path="url(#clipPath2)" fill="none" width="30" stroke-dasharray="6,2" height="30"/>
      <text fill="rgb(102,102,153)" x="473.8535" xml:space="preserve" y="483.1543" clip-path="url(#clipPath2)" stroke="none">old</text>
      <text fill="rgb(102,102,153)" x="800.5986" xml:space="preserve" y="483.1543" clip-path="url(#clipPath2)" stroke="none">new</text>
      <text x="413.001" xml:space="preserve" y="312.1543" clip-path="url(#clipPath2)" stroke="none">Partition 0</text>
      <text x="413.001" xml:space="preserve" y="372.1543" clip-path="url(#clipPath2)" stroke="none">Partition 1</text>
      <text x="413.001" xml:space="preserve" y="432.1543" clip-path="url(#clipPath2)" stroke="none">Partition 2</text>
      <text x="533.4346" y="265.6543" clip-path="url(#clipPath2)" fill="rgb(102,102,153)" font-style="italic" stroke="none" xml:space="preserve">offset</text>
      <text x="794.7891" y="372.1543" clip-path="url(#clipPath2)" fill="rgb(102,102,153)" font-style="italic" stroke="none" xml:space="preserve">writes</text>
      <path fill="none" d="M498 479 L790 479" clip-path="url(#clipPath2)" stroke="rgb(102,102,153)"/>
      <path fill="rgb(102,102,153)" d="M798 479 L786 474 L789 479 L786 484 Z" clip-path="url(#clipPath2)" stroke="none"/>
      <path fill="none" d="M557.2857 271 L568.3348 286.4687" clip-path="url(#clipPath2)" stroke="rgb(102,102,153)"/>
      <path fill="rgb(102,102,153)" d="M572.9847 292.9785 L570.0785 280.3075 L567.7535 285.6549 L561.9412 286.1199 Z" clip-path="url(#clipPath2)" stroke="none"/>
      <path fill="none" d="M808.25 358.5 L794.0777 330.1554" clip-path="url(#clipPath2)" stroke="rgb(102,102,153)"/>
      <path fill="rgb(102,102,153)" d="M790.5 323 L791.3944 335.9692 L794.5249 331.0499 L800.3387 331.4971 Z" clip-path="url(#clipPath2)" stroke="none"/>
      <path fill="none" d="M788 368 L716 368" clip-path="url(#clipPath2)" stroke="rgb(102,102,153)"/>
      <path fill="rgb(102,102,153)" d="M708 368 L720 373 L717 368 L720 363 Z" clip-path="url(#clipPath2)" stroke="none"/>
      <path fill="none" d="M803.5 377.5 L773.6569 407.3431" clip-path="url(#clipPath2)" stroke="rgb(102,102,153)"/>
      <path fill="rgb(102,102,153)" d="M768 413 L780.0208 408.0503 L774.364 406.636 L772.9498 400.9792 Z" clip-path="url(#clipPath2)" stroke="none"/>
    </g>
  </g>
</svg>
