<?xml version="1.0" encoding="UTF-8"?><svg xmlns="http://www.w3.org/2000/svg" xmlns:xlink="http://www.w3.org/1999/xlink" fill-opacity="1" color-rendering="auto" color-interpolation="auto" text-rendering="auto" stroke="black" stroke-linecap="square" width="446" stroke-miterlimit="10" shape-rendering="auto" stroke-opacity="1" fill="black" stroke-dasharray="none" font-weight="normal" stroke-width="1" height="202" font-family="'Dialog'" font-style="normal" stroke-linejoin="miter" font-size="12px" stroke-dashoffset="0" image-rendering="auto">
  <!--Generated by ySVG 2.5-->
  <defs id="genericDefs"/>
  <g>
    <defs id="defs1">
      <clipPath clipPathUnits="userSpaceOnUse" id="clipPath1">
        <path d="M0 0 L446 0 L446 202 L0 202 L0 0 Z"/>
      </clipPath>
      <clipPath clipPathUnits="userSpaceOnUse" id="clipPath2">
        <path d="M389 207 L835 207 L835 409 L389 409 L389 207 Z"/>
      </clipPath>
    </defs>
    <g fill="white" text-rendering="geometricPrecision" shape-rendering="geometricPrecision" transform="translate(-389,-207)" stroke="white">
      <rect x="389" width="446" height="202" y="207" clip-path="url(#clipPath2)" stroke="none"/>
    </g>
    <g text-rendering="geometricPrecision" stroke-miterlimit="1.45" shape-rendering="geometricPrecision" font-family="sans-serif" transform="matrix(1,0,0,1,-389,-207)" stroke-linecap="butt">
      <text x="509.1826" xml:space="preserve" y="312.1543" clip-path="url(#clipPath2)" stroke="none">0</text>
      <rect fill="none" x="498" width="30" height="30" y="293" clip-path="url(#clipPath2)"/>
      <text x="539.1826" xml:space="preserve" y="312.1543" clip-path="url(#clipPath2)" stroke="none">1</text>
      <rect fill="none" x="528" width="30" height="30" y="293" clip-path="url(#clipPath2)"/>
      <text x="569.1826" xml:space="preserve" y="312.1543" clip-path="url(#clipPath2)" stroke="none">2</text>
      <rect fill="none" x="558" width="30" height="30" y="293" clip-path="url(#clipPath2)"/>
      <text x="599.1826" xml:space="preserve" y="312.1543" clip-path="url(#clipPath2)" stroke="none">3</text>
      <rect fill="none" x="588" width="30" height="30" y="293" clip-path="url(#clipPath2)"/>
      <text x="629.1826" xml:space="preserve" y="312.1543" clip-path="url(#clipPath2)" stroke="none">4</text>
      <rect fill="none" x="618" width="30" height="30" y="293" clip-path="url(#clipPath2)"/>
      <text x="659.1826" xml:space="preserve" y="312.1543" clip-path="url(#clipPath2)" stroke="none">5</text>
      <rect fill="none" x="648" width="30" height="30" y="293" clip-path="url(#clipPath2)"/>
      <text x="689.1826" xml:space="preserve" y="312.1543" clip-path="url(#clipPath2)" stroke="none">6</text>
      <rect fill="none" x="678" width="30" height="30" y="293" clip-path="url(#clipPath2)"/>
      <text x="719.1826" xml:space="preserve" y="312.1543" clip-path="url(#clipPath2)" stroke="none">7</text>
      <rect fill="none" x="708" width="30" height="30" y="293" clip-path="url(#clipPath2)"/>
      <text x="749.1826" xml:space="preserve" y="312.1543" clip-path="url(#clipPath2)" stroke="none">8</text>
      <rect fill="none" x="738" width="30" height="30" y="293" clip-path="url(#clipPath2)"/>
      <text x="779.1826" xml:space="preserve" y="312.1543" clip-path="url(#clipPath2)" stroke="none">9</text>
      <rect x="768" y="293" clip-path="url(#clipPath2)" fill="none" width="30" stroke-dasharray="6,2" height="30"/>
      <text x="413.001" xml:space="preserve" y="312.1543" clip-path="url(#clipPath2)" stroke="none">Partition 0</text>
    </g>
    <g stroke-linecap="butt" transform="matrix(1,0,0,1,-389,-207)" fill="rgb(102,102,153)" text-rendering="geometricPrecision" font-family="sans-serif" shape-rendering="geometricPrecision" font-style="italic" stroke="rgb(102,102,153)" font-weight="bold" stroke-miterlimit="1.45">
      <text x="497.8164" xml:space="preserve" y="236.1543" clip-path="url(#clipPath2)" stroke="none">Consumer 1</text>
      <text x="712.3701" xml:space="preserve" y="236.1543" clip-path="url(#clipPath2)" stroke="none">Producer</text>
      <text x="617.8164" xml:space="preserve" y="388.1543" clip-path="url(#clipPath2)" stroke="none">Consumer 2</text>
      <path fill="none" d="M543.4508 241.5 L569.0042 286.0359" clip-path="url(#clipPath2)"/>
      <path d="M572.9856 292.9749 L571.3503 280.0781 L568.5065 285.1686 L562.6767 285.0548 Z" stroke="none" clip-path="url(#clipPath2)"/>
      <text x="574.8642" xml:space="preserve" y="269.3492" clip-path="url(#clipPath2)" font-weight="normal" stroke="none">reads</text>
      <path fill="none" d="M749.2295 241.5 L778.5967 286.2849" clip-path="url(#clipPath2)"/>
      <path d="M782.9835 292.9749 L780.5845 280.1982 L778.0483 285.4487 L772.222 285.6817 Z" stroke="none" clip-path="url(#clipPath2)"/>
      <text x="781.4338" xml:space="preserve" y="267.8286" clip-path="url(#clipPath2)" font-weight="normal" stroke="none">writes</text>
      <path fill="none" d="M663.4508 374.5 L689.0186 329.9389" clip-path="url(#clipPath2)"/>
      <path d="M693 323 L682.6911 330.92 L688.5209 330.8063 L691.3647 335.8967 Z" stroke="none" clip-path="url(#clipPath2)"/>
      <text x="694.8642" xml:space="preserve" y="354.9594" clip-path="url(#clipPath2)" font-weight="normal" stroke="none">reads</text>
    </g>
  </g>
</svg>
